grf
version=1
nRows=6
nColumns=37
inDegrees=no
endheader
time	ground_force_1_vx	ground_force_1_vy	ground_force_1_vz	ground_force_1_px	ground_force_1_py	ground_force_1_pz	ground_moment_1_mx	ground_moment_1_my	ground_moment_1_mz	ground_force_2_vx	ground_force_2_vy	ground_force_2_vz	ground_force_2_px	ground_force_2_py	ground_force_2_pz	ground_moment_2_mx	ground_moment_2_my	ground_moment_2_mz	ground_force_3_vx	ground_force_3_vy	ground_force_3_vz	ground_force_3_px	ground_force_3_py	ground_force_3_pz	ground_moment_3_mx	ground_moment_3_my	ground_moment_3_mz	ground_force_4_vx	ground_force_4_vy	ground_force_4_vz	ground_force_4_px	ground_force_4_py	ground_force_4_pz	ground_moment_4_mx	ground_moment_4_my	ground_moment_4_mz
      7.68000000	      0.00000000	     -0.00000000	      0.00000000	      0.00000000	      0.00000000	      0.00000000	      0.00000000	      0.00000000	      0.00000000	    -10.41106892	     27.78214836	   -557.45819092	   -322.65692965	  -1025.12009576	      0.00000000	      0.00000000	      0.00000000	   2750.63314497	     12.72350775	    -23.35462872	   -438.94323730	   -401.92384196	   -752.71307124	      0.00000000	      0.00000000	     -0.00000000	   -686.73854297	      0.00000000	     -0.00000000	      0.00000000	      0.00000000	      0.00000000	      0.00000000	      0.00000000	      0.00000000	      0.00000000
      7.69000000	      0.00000000	     -0.00000000	      0.00000000	      0.00000000	      0.00000000	      0.00000000	      0.00000000	      0.00000000	      0.00000000	    -10.36639404	     28.11133194	   -558.76629639	   -322.87152777	  -1026.28237333	      0.00000000	      0.00000000	      0.00000000	   2624.24452755	     13.13690073	    -23.83918305	   -439.99169922	   -402.41040131	   -752.74050351	      0.00000000	      0.00000000	     -0.00000000	   -722.24618818	      0.00000000	     -0.00000000	      0.00000000	      0.00000000	      0.00000000	      0.00000000	      0.00000000	      0.00000000	      0.00000000
      7.70000000	      0.00000000	     -0.00000000	      0.00000000	      0.00000000	      0.00000000	      0.00000000	      0.00000000	      0.00000000	      0.00000000	    -10.08989906	     27.61221886	   -557.59899902	   -322.40583241	  -1025.47509825	      0.00000000	      0.00000000	      0.00000000	   2625.63497989	     13.53359967	    -23.86244701	   -440.37265015	   -402.94393018	   -752.93188704	      0.00000000	      0.00000000	     -0.00000000	   -733.30081893	      0.00000000	     -0.00000000	      0.00000000	      0.00000000	      0.00000000	      0.00000000	      0.00000000	      0.00000000	      0.00000000
      7.71000000	      0.00000000	     -0.00000000	      0.00000000	      0.00000000	      0.00000000	      0.00000000	      0.00000000	      0.00000000	      0.00000000	    -10.61605072	     27.71955490	   -555.34490967	   -322.32507929	  -1025.76858754	      0.00000000	      0.00000000	      0.00000000	   2519.40539518	     13.95141296	    -24.03931167	   -442.11968994	   -403.56020970	   -752.94093499	      0.00000000	      0.00000000	     -0.00000000	   -644.30227597	      0.00000000	     -0.00000000	      0.00000000	      0.00000000	      0.00000000	      0.00000000	      0.00000000	      0.00000000	      0.00000000
      7.72000000	      0.00000000	     -0.00000000	      0.00000000	      0.00000000	      0.00000000	      0.00000000	      0.00000000	      0.00000000	      0.00000000	     -9.81740952	     27.19411087	   -553.39599609	   -322.49127237	  -1025.44859554	      0.00000000	      0.00000000	      0.00000000	   2755.99278067	     15.25017905	    -24.60156193	   -444.15261841	   -403.82883225	   -753.20851383	      0.00000000	      0.00000000	     -0.00000000	   -882.26232881	      0.00000000	     -0.00000000	      0.00000000	      0.00000000	      0.00000000	      0.00000000	      0.00000000	      0.00000000	      0.00000000
      7.73000000	      0.00000000	     -0.00000000	      0.00000000	      0.00000000	      0.00000000	      0.00000000	      0.00000000	      0.00000000	      0.00000000	    -10.37127018	     27.35356140	   -551.66711426	   -322.84831688	  -1025.67351735	      0.00000000	      0.00000000	      0.00000000	   2448.45059208	     16.01566864	    -24.48958918	   -446.62945557	   -404.22325558	   -753.14183798	      0.00000000	      0.00000000	     -0.00000000	   -768.45227910	      0.00000000	     -0.00000000	      0.00000000	      0.00000000	      0.00000000	      0.00000000	      0.00000000	      0.00000000	      0.00000000
